<svg width="32" height="26" xmlns="http://www.w3.org/2000/svg" xmlns:xlink="http://www.w3.org/1999/xlink" xmlns:svgjs="http://svgjs.com/svgjs" viewBox="0 0.383 32 25.234"><svg xmlns="http://www.w3.org/2000/svg" width="32" height="26" viewBox="1.999 1.937 30.436 24" fill="#d4d4d4"><path fill="#FFF" paint-order="stroke fill markers" fill-rule="evenodd" d="M14 1.937c6.627 0 12 5.373 12 12 0 6.628-5.373 12-12 12-6.628 0-12-5.372-12-12 0-6.627 5.372-12 12-12zM14.02 13a1 1 0 1 1 0 2 1 1 0 0 1 0-2zm9.926-3.865c2.384-1.376 6.448-1.867 7.75.388 1.137 1.97.742 4.287-1.186 6.95l-.65.904c-1.038 1.417-1.662 2.508-1.873 3.272-.212.765-.099 1.525.338 2.281.577 1 1.503 1.416 2.779 1.25.693-.086 1.103-.018 1.231.203.19.328.11.594-.24.795-.706.408-1.568.44-2.585.095-1.018-.345-1.759-.92-2.224-1.727-1.153-1.997-.623-4.324 1.59-6.982l.388-.465c1.892-2.273 2.358-4.244 1.394-5.913-.432-.748-1.52-1-2.722-.956-1.333.049-2.807.462-3.688.97l-.302-1.065M14 6a2.5 2.5 0 1 1 0 5 2.5 2.5 0 0 1 0-5zm-5.5 5.5a2.5 2.5 0 1 1 0 5 2.5 2.5 0 0 1 0-5zM14 17a2.5 2.5 0 1 1 0 5 2.5 2.5 0 0 1 0-5zm5.5-5.5a2.5 2.5 0 1 1 0 5 2.5 2.5 0 0 1 0-5z"/></svg></svg>